#!OML:ASF F:\VICON\USERDATA\INSTALL\rory3\rory3.ASF
:FULLY-SPECIFIED
:DEGREES
2347
root -2.81043 14.8316 23.0242 872.482 -3.15275 161.441
lowerback -13.7919 -8.76656 13.7889
upperback -7.61229 -11.7487 7.08238
thorax -1.92671 -5.57941 -1.23398
lowerneck -13.2234 3.37973 3.32819
upperneck 28.4262 14.1553 -22.2916
head 14.1278 5.62398 -6.89123
rclavicle 6.04305e-014 -7.31528e-014
rhumerus 12.9473 20.1623 -32.4185
rradius 96.234
rwrist 12.0059
rhand -13.9679 -36.5372
rfingers 7.12502
rthumb -167.84 473.836
lclavicle 6.04305e-014 -7.31528e-014
lhumerus 21.8237 18.9635 37.6688
lradius 22.6775
lwrist 48.7058
lhand -33.9513 -11.9635
lfingers 7.12502
lthumb -7.13253 17.8963
rfemur -49.731 -8.91238 32.1643
rtibia 52.5704
rfoot 3.42292 -23.5791
rtoes 33.433
lfemur -17.839 39.8202 -22.9483
ltibia 93.8068
lfoot -24.2373 8.5789
ltoes 0.64426
2348
root -2.82267 14.8367 23.0633 872.594 -3.65538 162.158
lowerback -13.7014 -8.73117 14.2037
upperback -7.40761 -11.7149 7.29679
thorax -1.80006 -5.53208 -1.21992
lowerneck -13.6234 3.45053 3.0735
upperneck 28.6081 14.2447 -21.8549
head 14.2472 5.63635 -6.63891
rclavicle -1.27222e-014 -9.54166e-015
rhumerus 13.4277 21.2848 -32.8797
rradius 95.869
rwrist 11.891
rhand -13.7605 -36.617
rfingers 7.12502
rthumb -167.64 473.768
lclavicle -1.27222e-014 -9.54166e-015
lhumerus 21.9012 17.7857 37.1075
lradius 23.1256
lwrist 50.3813
lhand -33.5952 -10.8006
lfingers 7.12502
lthumb -6.78885 19.0706
rfemur -49.6898 -9.05722 32.6987
rtibia 52.4979
rfoot 3.77329 -23.7197
rtoes 32.8209
lfemur -18.3278 39.9036 -22.5484
ltibia 94.0394
lfoot -22.9737 9.97499
ltoes -2.58222
2349
root -2.83896 14.8598 23.0868 872.486 -3.818 162.765
lowerback -13.939 -8.52975 14.8664
upperback -6.9352 -11.6256 7.36418
thorax -1.28176 -5.44506 -1.55541
lowerneck -13.6931 3.40607 3.45963
upperneck 28.2522 14.1559 -22.3113
head 14.1706 5.61511 -6.90186
rclavicle -1.81292e-013 6.36111e-014
rhumerus 13.8982 22.1346 -33.6322
rradius 95.5393
rwrist 12.2457
rhand -13.1427 -36.41
rfingers 7.12502
rthumb -167.044 474.012
lclavicle -1.81292e-013 6.36111e-014
lhumerus 22.2823 17.2739 36.8651
lradius 23.3126
lwrist 51.1046
lhand -32.6602 -9.13203
lfingers 7.12502
lthumb -5.88615 20.7662
rfemur -49.28 -9.57432 33.8981
rtibia 52.608
rfoot 5.82844 -22.8143
rtoes 27.5762
lfemur -17.7648 40.134 -21.454
ltibia 94.294
lfoot -23.2181 8.82822
ltoes -0.832274
2350
root -2.85664 14.8815 23.0981 872.397 -4.16575 163.182
lowerback -13.6007 -6.22572 14.6285
upperback -7.12512 -12.0632 7.40319
thorax -1.31721 -6.95531 -1.47269
lowerneck -13.6948 3.36319 3.73255
upperneck 28.2153 14.2001 -22.6772
head 14.2314 5.66615 -7.10168
rclavicle -2.60805e-013 2.83069e-013
rhumerus 14.1375 23.6004 -33.7885
rradius 95.1562
rwrist 11.9657
rhand -13.8483 -36.3581
rfingers 7.12502
rthumb -167.725 474.022
lclavicle -2.60805e-013 2.83069e-013
lhumerus 22.8732 17.6745 37.9064
lradius 22.892
lwrist 50.087
lhand -31.9912 -8.49099
lfingers 7.12502
lthumb -5.24025 21.4242
rfemur -48.7902 -9.83527 34.3897
rtibia 52.4711
rfoot 6.60496 -22.4285
rtoes 25.5965
lfemur -17.2558 40.3012 -20.8268
ltibia 94.3418
lfoot -22.9344 9.20211
ltoes -3.36415
2351
root -2.86282 14.8913 23.1097 872.189 -4.29396 164.11
lowerback -13.267 -6.04132 15.3853
upperback -6.98315 -11.9327 7.65894
thorax -1.41731 -6.92939 -1.53022
lowerneck -13.6403 3.34408 3.94718
upperneck 28.1537 14.1796 -22.8236
head 14.2197 5.69198 -7.2047
rclavicle 4.13472e-014 -1.08139e-013
rhumerus 14.3176 24.8527 -34.3663
rradius 94.7928
rwrist 11.7922
rhand -15.0397 -36.3696
rfingers 7.12502
rthumb -168.874 473.945
lclavicle 4.13472e-014 -1.08139e-013
lhumerus 24.6915 20.1242 40.8277
lradius 21.4758
lwrist 46.2364
lhand -31.4424 -8.84501
lfingers 7.12502
lthumb -4.71031 21.0826
rfemur -48.387 -9.77173 35.2529
rtibia 52.8249
rfoot 6.19321 -22.736
rtoes 25.8079
lfemur -16.7331 40.5326 -19.2259
ltibia 94.4084
lfoot -22.6194 8.74503
ltoes -5.4052
2352
root -2.85922 14.8912 23.1163 871.348 -3.42997 165.991
lowerback -12.2609 -8.27627 17.7526
upperback -6.33119 -11.0201 8.39655
thorax -1.90123 -5.05811 -1.62521
lowerneck -13.2552 3.2979 4.32099
upperneck 27.7754 14.0891 -23.2712
head 14.0227 5.71889 -7.46342
rclavicle -4.77083e-014 1.52667e-013
rhumerus 14.5154 25.9116 -35.4379
rradius 94.4719
rwrist 12.0339
rhand -12.8587 -36.5187
rfingers 7.12502
rthumb -166.771 473.921
lclavicle -4.77083e-014 1.52667e-013
lhumerus 25.2728 20.5724 41.9081
lradius 21.1517
lwrist 45.3048
lhand -30.7849 -8.60471
lfingers 7.12502
lthumb -4.07541 21.3361
rfemur -47.0721 -9.34828 37.502
rtibia 52.951
rfoot 5.49112 -23.4027
rtoes 26.3119
lfemur -15.2975 41.4195 -15.0604
ltibia 94.7028
lfoot -22.3083 7.80981
ltoes -6.41099
2353
root -2.94865 14.9108 23.1514 873.369 -8.36602 161.28
lowerback -13.8533 -6.54906 12.1473
upperback -7.27053 -11.8506 6.71233
thorax -0.98501 -6.67596 -0.977395
lowerneck -13.4625 3.32239 4.66024
upperneck 27.5221 14.1549 -23.7031
head 14.0538 5.76046 -7.68621
rclavicle -4.13472e-014 3.18055e-014
rhumerus 15.0927 26.8871 -36.1529
rradius 93.9076
rwrist 11.9794
rhand -12.968 -36.6791
rfingers 7.12502
rthumb -166.876 473.754
lclavicle -4.13472e-014 3.18055e-014
lhumerus 26.0412 21.2404 43.0118
lradius 20.9216
lwrist 44.7494
lhand -30.272 -8.30788
lfingers 7.12502
lthumb -3.58014 21.6418
rfemur -50.0897 -12.1499 31.0293
rtibia 54.3553
rfoot 5.61653 -22.0614
rtoes 25.612
lfemur -17.1911 38.4288 -25.6056
ltibia 93.0837
lfoot -22.3426 9.42148
ltoes -3.74389
2354
root -2.97304 14.8812 23.1849 872.668 -7.24451 159.143
lowerback -11.6654 -6.13287 11.1222
upperback -7.02848 -10.7178 6.49665
thorax -1.64691 -6.07384 -0.28853
lowerneck -13.0164 3.41681 4.69225
upperneck 27.5811 14.3433 -23.6427
head 14.0096 5.91568 -7.63321
rclavicle 7.95139e-014 -3.18055e-014
rhumerus 15.6595 28.5682 -36.8282
rradius 93.2674
rwrist 11.907
rhand -13.7491 -36.6847
rfingers 7.12502
rthumb -167.629 473.701
lclavicle 7.95139e-014 -3.18055e-014
lhumerus 25.7177 21.0279 42.9841
lradius 21.0718
lwrist 45.0903
lhand -30.463 -8.72151
lfingers 7.12502
lthumb -3.76456 21.225
rfemur -49.1134 -10.7987 29.7534
rtibia 54.9764
rfoot 6.19957 -21.2931
rtoes 24.4725
lfemur -15.4898 41.1259 -26.1968
ltibia 92.5055
lfoot -21.7414 10.295
ltoes -6.61765
2355
root -2.9813 14.9188 23.1878 873.608 -9.62882 160.853
lowerback -13.427 -6.6395 11.5391
upperback -7.42003 -11.7752 6.74455
thorax -1.23818 -6.62547 -0.549994
lowerneck -13.1565 3.55616 4.22502
upperneck 28.2615 14.6236 -22.8051
head 14.2635 6.04097 -7.16197
rclavicle -1.55847e-013 2.8943e-013
rhumerus 16.0557 29.9988 -37.6368
rradius 92.6903
rwrist 12.1529
rhand -13.5543 -36.4359
rfingers 7.12502
rthumb -167.441 473.962
lclavicle -1.55847e-013 2.8943e-013
lhumerus 25.4385 20.4538 42.8505
lradius 21.2726
lwrist 45.7914
lhand -30.8772 -9.93899
lfingers 7.12502
lthumb -4.16455 20
rfemur -50.3146 -12.619 30.5574
rtibia 55.656
rfoot 5.29116 -22.0145
rtoes 24.9443
lfemur -17.1128 38.8588 -26.445
ltibia 92.4932
lfoot -20.9731 10.5661
ltoes -7.8987
2356
root -3.00359 14.9119 23.2058 873.891 -10.1102 160.944
lowerback -13.3992 -6.48221 11.7052
upperback -7.37629 -11.5658 6.71327
thorax -1.22865 -6.52148 -0.64856
lowerneck -12.9667 3.53039 4.64681
upperneck 27.9833 14.4906 -23.0782
head 14.1287 6.03429 -7.37005
rclavicle 1.04958e-013 -1.94014e-013
rhumerus 16.2916 30.9626 -38.6563
rradius 91.9626
rwrist 12.9122
rhand -13.4987 -36.1594
rfingers 7.12502
rthumb -167.388 474.241
lclavicle 1.04958e-013 -1.94014e-013
lhumerus 25.8519 20.119 43.0985
lradius 21.331
lwrist 46.2591
lhand -30.4888 -10.1524
lfingers 7.12502
lthumb -3.78949 19.7936
rfemur -50.5016 -12.7428 30.751
rtibia 55.7629
rfoot 5.41082 -21.9591
rtoes 24.6333
lfemur -17.4308 38.8921 -26.658
ltibia 92.6257
lfoot -21.3331 10.2724
ltoes -7.12517
2357
root -3.01736 14.9254 23.222 874.069 -10.6906 161.049
lowerback -13.5179 -6.32571 11.7869
upperback -7.0525 -11.3598 6.67088
thorax -0.825345 -6.37708 -0.777134
lowerneck -13.7568 3.51901 4.71363
upperneck 28.1422 14.4452 -22.9396
head 14.3641 5.95777 -7.33413
rclavicle 3.18055e-015 9.54166e-014
rhumerus 16.8013 31.5148 -39.4468
rradius 91.0378
rwrist 13.7513
rhand -14.666 -35.8217
rfingers 7.12502
rthumb -168.513 474.513
lclavicle 3.18055e-015 9.54166e-014
lhumerus 26.7921 19.943 43.5865
lradius 21.2691
lwrist 46.4669
lhand -29.7396 -9.45448
lfingers 7.12502
lthumb -3.06596 20.5032
rfemur -50.4415 -12.9688 30.8684
rtibia 55.8016
rfoot 5.10544 -22.0999
rtoes 25.3217
lfemur -17.4332 38.9264 -26.7078
ltibia 92.641
lfoot -21.4902 10.2859
ltoes -7.4104
2358
root -3.02648 14.9374 23.2408 874.275 -11.3772 161.263
lowerback -13.7572 -6.36437 11.8454
upperback -7.06465 -11.4554 6.70655
thorax -0.723787 -6.42004 -0.814581
lowerneck -13.2614 3.50167 4.74083
upperneck 28.0459 14.4173 -22.9362
head 14.1968 6.0084 -7.33595
rclavicle -7.63333e-014 1.49486e-013
rhumerus 17.2425 32.8558 -40.3943
rradius 90.2401
rwrist 14.0491
rhand -16.0475 -35.5799
rfingers 7.12502
rthumb -169.846 474.685
lclavicle -7.63333e-014 1.49486e-013
lhumerus 26.5499 19.093 43.1723
lradius 21.4598
lwrist 47.1969
lhand -29.4487 -8.84471
lfingers 7.12502
lthumb -2.78505 21.1169
rfemur -50.4481 -13.2094 31.0308
rtibia 55.8746
rfoot 4.02655 -22.7777
rtoes 27.8243
lfemur -17.571 38.8797 -26.6998
ltibia 92.6711
lfoot -21.2555 10.574
ltoes -7.84405
